Coordinates
version=1
nRows=9
nColumns=42
inDegrees=yes

Units are S.I. units (second, meters, Newtons, ...)
If the header above contains a line with 'inDegrees', this indicates whether rotational values are in degrees (yes) or radians (no).

endheader
time	pelvis_tilt	pelvis_list	pelvis_rotation	pelvis_tx	pelvis_ty	pelvis_tz	hip_flexion_r	hip_adduction_r	hip_rotation_r	knee_angle_r	knee_adduction_r	knee_angle_r_beta	ankle_angle_r	subtalar_angle_r	mtp_angle_r	hip_flexion_l	hip_adduction_l	hip_rotation_l	knee_angle_l	knee_adduction_l	knee_angle_l_beta	ankle_angle_l	subtalar_angle_l	mtp_angle_l	lumbar_extension	lumbar_bending	lumbar_rotation	arm_flex_r	arm_add_r	arm_rot_r	elbow_flex_r	pro_sup_r	wrist_flex_r	wrist_dev_r	arm_flex_l	arm_add_l	arm_rot_l	elbow_flex_l	pro_sup_l	wrist_flex_l	wrist_dev_l
      1.80000000	     -1.63483022	     -6.37643548	      2.36352834	      0.73867673	      0.85441819	     -0.36724077	     12.59430474	      6.49990069	      0.86639388	     13.04606206	      7.99408111	      0.22769674	      1.31930067	     -9.00702023	     -7.50455700	      4.29474760	    -13.65786300	      0.72475006	     61.37588392	     12.45842629	      1.07121126	     -4.02719280	    -15.84152075	     -7.50455700	     -3.52545790	      9.86584444	     -5.88294992	     -9.66553510	    -14.61339825	     -1.78082143	     28.53434690	     90.00000001	      0.00000000	      0.00000000	    -12.38593585	     -8.03002096	    -14.33001743	     45.60667582	     90.00000001	      0.00000000	      0.00000000
      1.81000000	     -1.71034837	     -6.23810070	      2.20280680	      0.75032481	      0.85594902	     -0.36670514	     11.44045544	      6.47213708	      1.04794567	     12.34082896	      7.96117999	      0.21538810	      1.87748389	     -8.46429200	     -7.50443448	      6.46345528	    -13.50654839	      0.64194028	     63.75180898	     11.80624552	      1.11267897	     -3.00138365	    -16.05902610	     -7.50443448	     -3.52014643	      9.60147541	     -5.27513006	     -9.23377053	    -14.64940303	     -1.39024090	     28.57334526	     90.00000001	      0.00000000	      0.00000000	    -12.27516161	     -7.87641843	    -14.56559846	     44.45663412	     90.00000001	      0.00000000	      0.00000000
      1.82000000	     -1.62334656	     -5.98898904	      2.09319101	      0.76179034	      0.85753882	     -0.36636239	     10.14369564	      6.28817554	      1.11716833	     11.72521375	      7.94623679	      0.20464359	      2.44144280	     -7.87346161	     -7.50435473	      8.43537782	    -13.16818600	      0.64024028	     65.70380414	     11.22624622	      1.14674771	     -1.65897058	    -16.22604113	     -7.50435473	     -3.73878481	      9.22250184	     -4.70379537	     -8.71629709	    -14.69078376	     -1.10585501	     28.64574098	     90.00000001	      0.00000000	      0.00000000	    -12.18017597	     -7.79270428	    -14.68996976	     43.40679409	     90.00000001	      0.00000000	      0.00000000
      1.83000000	     -1.93263249	     -5.86286888	      2.00923147	      0.77311214	      0.85857169	     -0.36592728	      9.15676566	      6.24402028	      1.22478065	     10.77481391	      7.87663863	      0.18805598	      2.92942539	     -7.28127094	     -7.50412857	     10.93353901	    -12.97175518	      0.56043484	     67.41663139	     10.58434943	      1.17664219	     -0.14086306	    -15.89910331	     -7.50412857	     -3.44461193	      8.93872895	     -4.24716792	     -8.25573591	    -14.84537768	     -0.23332090	     28.78358973	     90.00000001	      0.00000000	      0.00000000	    -12.01604491	     -7.57904546	    -15.33071758	     42.10610417	     90.00000001	      0.00000000	      0.00000000
      1.84000000	     -1.91298243	     -5.51562959	      1.96268799	      0.78419113	      0.85983292	     -0.36576545	      7.90014763	      5.91712934	      1.14970102	     10.02584194	      7.85288670	      0.17498395	      3.46820433	     -6.61797807	     -7.50405470	     12.97369123	    -12.40773650	      0.59638052	     68.58105846	     10.06668951	      1.19696527	      1.38819679	    -15.92642628	     -7.50405470	     -3.60566799	      8.44009066	     -3.78361516	     -7.61725878	    -14.87828452	      0.00236709	     28.94217292	     90.00000001	      0.00000000	      0.00000000	    -11.89573856	     -7.55561845	    -15.37501683	     41.07242655	     90.00000001	      0.00000000	      0.00000000
      1.85000000	     -2.06474952	     -5.16885946	      1.93342825	      0.79534277	      0.86075823	     -0.36562186	      6.72586942	      5.56042946	      1.08099481	      9.04360341	      7.86315109	      0.15784066	      4.00929845	     -5.77819439	     -7.50395066	     15.15592356	    -11.83487965	      0.64139195	     69.34228267	      9.64713064	      1.21025114	      2.90817359	    -15.51894112	     -7.50395066	     -3.50943455	      7.92334600	     -3.38870197	     -7.02301762	    -14.95239477	      0.42986596	     29.12326528	     90.00000001	      0.00000000	      0.00000000	    -11.73759660	     -7.47282404	    -15.79520800	     39.85503764	     90.00000001	      0.00000000	      0.00000000
      1.86000000	     -2.16106701	     -4.84429890	      1.90879848	      0.80605351	      0.86151463	     -0.36549371	      5.63731502	      5.26102958	      0.94368996	      8.31047785	      7.80096688	      0.14504520	      4.49918680	     -5.09471318	     -7.50388069	     17.27213400	    -11.22888781	      0.69942845	     69.74855741	      9.25167876	      1.21734198	      4.40675324	    -15.31867016	     -7.50388069	     -3.56642864	      7.43442050	     -3.02376748	     -6.28979922	    -15.01132832	      0.73079227	     29.38406013	     90.00000001	      0.00000000	      0.00000000	    -11.60686948	     -7.44737265	    -16.01050892	     38.87002487	     90.00000001	      0.00000000	      0.00000000
      1.87000000	     -2.24834606	     -4.51018739	      1.76853261	      0.81688899	      0.86199409	     -0.36507063	      4.58719422	      4.99053844	      0.64114148	      7.70861316	      7.70198891	      0.13454068	      4.89965380	     -4.53415438	     -7.50382447	     19.27944128	    -10.73508812	      0.70999705	     69.84566438	      9.12491481	      1.21903681	      5.49470025	    -14.94441622	     -7.50382447	     -3.60832022	      6.88953325	     -2.51269946	     -5.63141446	    -15.03906582	      0.98791975	     29.66373265	     90.00000001	      0.00000000	      0.00000000	    -11.57400347	     -7.48237632	    -16.24402917	     38.09083187	     90.00000001	      0.00000000	      0.00000000
      1.88000000	     -2.49801950	     -4.19329104	      1.85400088	      0.82770324	      0.86222693	     -0.36545079	      3.54540362	      4.57689226	      0.69046540	      6.70125766	      7.81935088	      0.11695901	      5.49604857	     -3.61114360	     -7.50374888	     21.36244909	     -9.98547611	      0.93752047	     69.32980880	      8.91942498	      1.21003343	      7.01360604	    -14.55677796	     -7.50374888	     -3.40421792	      6.46988391	     -2.42924596	     -4.84194020	    -15.20053346	      1.43583622	     29.98467143	     90.00000001	      0.00000000	      0.00000000	    -11.42614898	     -7.34968449	    -16.72326323	     36.78679914	     90.00000001	      0.00000000	      0.00000000
